<svg width="326" height="35" viewBox="0 0 326 35" fill="none" xmlns="http://www.w3.org/2000/svg">
<path d="M2.14194 34.24C1.30994 34.24 0.893937 33.984 0.893937 33.472C0.893937 33.184 0.989937 32.96 1.18194 32.8C1.37394 32.64 1.66194 32.512 2.04594 32.416C3.99794 31.84 5.32594 30.768 6.02994 29.2C8.90994 22.512 11.6939 15.472 14.3819 8.08C14.7659 7.024 15.0539 6.128 15.2459 5.392C15.4379 4.656 15.5499 4.256 15.5819 4.192C16.7659 3.904 17.8539 3.584 18.8459 3.232C19.7099 2.88 20.4939 2.32 21.1979 1.552C21.3579 1.456 21.4859 1.408 21.5819 1.408C21.7739 1.408 21.9019 1.504 21.9659 1.696C22.1899 2.176 22.3499 2.608 22.4459 2.992C24.5579 9.776 27.3579 18.464 30.8459 29.056C31.3899 30.784 32.7179 31.904 34.8299 32.416C35.2139 32.512 35.5019 32.64 35.6939 32.8C35.8859 32.96 35.9819 33.168 35.9819 33.424C35.9819 33.648 35.8859 33.824 35.6939 33.952C35.5339 34.08 35.3099 34.144 35.0219 34.144L31.3739 34.048C29.9019 33.952 28.5259 33.904 27.2459 33.904C26.6379 33.904 25.4699 33.936 23.7419 34C21.9499 34.064 20.7179 34.096 20.0459 34.096C19.7579 34.096 19.5019 34.048 19.2779 33.952C19.0859 33.824 18.9899 33.648 18.9899 33.424C18.9899 32.944 19.3739 32.608 20.1419 32.416C21.2619 32.192 22.0779 31.92 22.5899 31.6C23.1019 31.248 23.3579 30.784 23.3579 30.208C23.3579 30.08 23.3259 29.856 23.2619 29.536L22.3979 26.08L21.7259 23.536C21.6619 23.28 21.5659 23.104 21.4379 23.008C21.3099 22.88 21.1179 22.816 20.8619 22.816H12.3659C12.1419 22.816 11.9659 22.88 11.8379 23.008C11.7099 23.136 11.6139 23.344 11.5499 23.632C10.6859 26.256 10.1259 28.032 9.86994 28.96C9.77394 29.28 9.72594 29.6 9.72594 29.92C9.72594 30.56 9.96594 31.072 10.4459 31.456C10.9259 31.84 11.7259 32.16 12.8459 32.416C13.6139 32.576 13.9979 32.912 13.9979 33.424C13.9979 33.872 13.6299 34.096 12.8939 34.096L10.3019 34.048C9.21394 33.984 8.33394 33.952 7.66194 33.952C7.21394 33.952 6.70194 33.968 6.12594 34C5.58194 34.064 5.18194 34.096 4.92594 34.096C4.02994 34.192 3.10194 34.24 2.14194 34.24ZM19.9499 20.224C20.4299 20.224 20.6699 20.112 20.6699 19.888C20.6699 19.824 20.6379 19.664 20.5739 19.408L17.3579 8.56C17.2619 8.208 17.1659 8.032 17.0699 8.032C17.0379 8.032 16.9259 8.208 16.7339 8.56L12.9419 19.408C12.8779 19.536 12.8459 19.664 12.8459 19.792C12.8459 20.08 13.1339 20.224 13.7099 20.224H19.9499ZM37.5573 34.24C37.3973 34.24 37.1733 34.08 36.8853 33.76C36.5973 33.44 36.4533 33.152 36.4533 32.896C36.4533 32.608 36.8533 31.904 37.6533 30.784C38.0373 30.272 38.2933 29.904 38.4213 29.68L39.9573 27.28C42.0053 24.144 44.2293 20.624 46.6293 16.72C46.6933 16.592 46.7253 16.496 46.7253 16.432C46.7253 16.24 46.5333 16.144 46.1493 16.144L43.5093 16.096C42.6773 16.096 41.9573 16.4 41.3493 17.008C41.1573 17.2 40.8213 17.632 40.3413 18.304C39.8613 18.976 39.5093 19.472 39.2853 19.792L38.2773 21.184C38.1173 21.344 37.9413 21.424 37.7493 21.424C37.4933 21.424 37.2533 21.36 37.0293 21.232C36.8373 21.072 36.7573 20.896 36.7893 20.704C37.0133 19.936 37.2693 18.88 37.5573 17.536C37.8453 16.16 37.9893 15.072 37.9893 14.272C37.9893 13.952 38.1013 13.664 38.3253 13.408C38.5813 13.152 38.8373 13.024 39.0933 13.024C39.3813 13.024 39.6853 13.184 40.0053 13.504C40.2293 13.728 40.9973 13.84 42.3093 13.84L44.2773 13.792C48.1813 13.792 51.5413 13.728 54.3573 13.6C54.6133 13.6 54.8373 13.76 55.0293 14.08C55.2213 14.368 55.3173 14.688 55.3173 15.04C55.3173 15.264 55.2853 15.408 55.2213 15.472C54.6773 16.112 54.0053 16.976 53.2053 18.064L45.2373 30.928C45.1413 31.056 45.0933 31.184 45.0933 31.312C45.0933 31.536 45.3653 31.648 45.9093 31.648H48.9333C49.4133 31.648 49.8453 31.568 50.2293 31.408C50.6133 31.248 50.9813 30.96 51.3333 30.544C51.7813 30.064 52.1493 29.6 52.4373 29.152C52.7573 28.672 53.2533 27.824 53.9253 26.608C54.1173 26.32 54.3733 26.176 54.6933 26.176C54.9493 26.176 55.1573 26.24 55.3173 26.368C55.5093 26.496 55.6053 26.672 55.6053 26.896C55.6053 27.312 55.4293 28.224 55.0773 29.632C54.7253 31.008 54.3733 32.288 54.0213 33.472C53.9893 33.696 53.8773 33.872 53.6853 34C53.5253 34.16 53.3333 34.24 53.1093 34.24L50.7093 34.144C50.1013 34.144 48.9173 34.112 47.1573 34.048C45.3973 33.984 43.6053 33.952 41.7813 33.952C41.1413 33.952 40.2773 34.016 39.1893 34.144L37.5573 34.24ZM66.5264 34.672C64.8304 34.672 63.2944 34.224 61.9184 33.328C60.5424 32.4 59.4544 31.136 58.6544 29.536C57.8864 27.936 57.5024 26.144 57.5024 24.16C57.5024 22.176 57.9664 20.352 58.8944 18.688C59.8224 17.024 61.0864 15.712 62.6864 14.752C64.3184 13.76 66.0784 13.264 67.9664 13.264C69.3104 13.264 70.5424 13.552 71.6624 14.128C72.7824 14.704 73.6624 15.504 74.3024 16.528C74.9424 17.552 75.2624 18.672 75.2624 19.888C75.2624 20.528 75.1344 20.992 74.8784 21.28C74.6544 21.568 74.2864 21.712 73.7744 21.712H64.1744C63.7264 21.712 63.3904 21.84 63.1664 22.096C62.9744 22.352 62.8784 22.784 62.8784 23.392C62.8784 25.248 63.4704 26.816 64.6544 28.096C65.8384 29.344 67.3264 29.968 69.1184 29.968C70.0144 29.968 70.8464 29.808 71.6144 29.488C72.3824 29.136 73.1824 28.64 74.0144 28C74.3344 27.744 74.5584 27.616 74.6864 27.616C75.0064 27.616 75.1664 27.824 75.1664 28.24C75.1664 28.656 75.0384 29.136 74.7824 29.68C74.2704 31.024 73.2624 32.192 71.7584 33.184C70.2864 34.176 68.5424 34.672 66.5264 34.672ZM67.0544 19.696C67.7904 19.696 68.3664 19.68 68.7824 19.648C69.1984 19.616 69.5664 19.552 69.8864 19.456C70.0464 19.392 70.1744 19.232 70.2704 18.976C70.3664 18.72 70.4144 18.432 70.4144 18.112C70.4144 17.28 70.1104 16.592 69.5024 16.048C68.9264 15.472 68.2064 15.184 67.3424 15.184C66.3504 15.184 65.4544 15.6 64.6544 16.432C63.8544 17.232 63.4704 18.096 63.5024 19.024C63.5024 19.472 63.7264 19.696 64.1744 19.696H67.0544ZM78.1901 34.144C77.9981 34.144 77.8221 34.096 77.6621 34C77.5021 33.872 77.4221 33.712 77.4221 33.52C77.4221 33.04 77.7101 32.72 78.2861 32.56C79.1501 32.368 79.7421 32.16 80.0621 31.936C80.3821 31.68 80.5421 31.296 80.5421 30.784V20.416C80.5421 19.36 80.3821 18.592 80.0621 18.112C79.7421 17.632 79.2141 17.344 78.4781 17.248C78.2861 17.216 78.1421 17.12 78.0461 16.96C77.9501 16.8 77.9021 16.608 77.9021 16.384C77.9021 16.192 77.9501 16.016 78.0461 15.856C78.1741 15.696 78.3021 15.6 78.4301 15.568C79.8701 15.312 81.1341 14.96 82.2221 14.512C83.3421 14.064 84.5581 13.52 85.8701 12.88C86.3181 12.624 86.6381 12.496 86.8301 12.496C87.0221 12.496 87.1661 12.56 87.2621 12.688C87.3901 12.784 87.4541 12.912 87.4541 13.072L87.2621 14.848C86.9741 17.28 86.8301 19.04 86.8301 20.128V30.736C86.8301 31.184 86.9901 31.536 87.3101 31.792C87.6301 32.048 88.2381 32.304 89.1341 32.56C89.4221 32.656 89.6301 32.768 89.7581 32.896C89.9181 33.024 89.9981 33.216 89.9981 33.472C89.9981 33.888 89.7581 34.096 89.2781 34.096C88.6061 34.096 87.6301 34.064 86.3501 34C85.0701 33.936 84.1581 33.904 83.6141 33.904C83.0701 33.904 82.2221 33.936 81.0701 34C80.1101 34.096 79.1501 34.144 78.1901 34.144ZM83.4701 10.336C82.4461 10.336 81.5661 9.968 80.8301 9.232C80.0941 8.496 79.7261 7.616 79.7261 6.592C79.7261 5.504 80.0941 4.592 80.8301 3.856C81.5661 3.12 82.4461 2.752 83.4701 2.752C84.5581 2.752 85.4701 3.12 86.2061 3.856C86.9741 4.592 87.3581 5.504 87.3581 6.592C87.3581 7.616 86.9741 8.496 86.2061 9.232C85.4701 9.968 84.5581 10.336 83.4701 10.336ZM101.082 34.672C99.0023 34.672 97.4183 34.144 96.3303 33.088C95.2743 32.032 94.7463 30.512 94.7463 28.528V17.488C94.7463 17.2 94.6343 16.992 94.4103 16.864C94.1863 16.736 93.8023 16.656 93.2583 16.624H92.6343C92.4423 16.624 92.2663 16.448 92.1063 16.096C91.9463 15.744 91.8663 15.408 91.8663 15.088C91.8663 14.864 91.9623 14.704 92.1543 14.608C93.7543 14.032 96.0903 12.4 99.1623 9.712C99.2263 9.648 99.3383 9.568 99.4983 9.472C99.6583 9.344 99.8023 9.248 99.9303 9.184C100.058 9.12 100.202 9.088 100.362 9.088C100.682 9.088 100.89 9.152 100.986 9.28C101.082 9.408 101.114 9.664 101.082 10.048L100.794 12.88V13.072C100.794 13.616 101.178 13.888 101.946 13.888H107.658C107.754 13.888 107.85 14 107.946 14.224C108.042 14.448 108.09 14.656 108.09 14.848C108.09 15.328 108.026 15.776 107.898 16.192C107.77 16.576 107.626 16.768 107.466 16.768H103.002C102.266 16.768 101.754 16.864 101.466 17.056C101.21 17.216 101.082 17.52 101.082 17.968V27.04C101.082 28.48 101.354 29.568 101.898 30.304C102.442 31.04 103.194 31.408 104.154 31.408C104.89 31.408 105.45 31.36 105.834 31.264C106.25 31.136 106.586 31.008 106.842 30.88C107.13 30.752 107.306 30.672 107.37 30.64C107.498 30.576 107.594 30.544 107.658 30.544C107.818 30.544 107.946 30.64 108.042 30.832C108.138 30.992 108.186 31.216 108.186 31.504C108.186 31.728 107.818 32.112 107.082 32.656C106.378 33.168 105.482 33.632 104.394 34.048C103.306 34.464 102.202 34.672 101.082 34.672ZM118.698 34.672C117.002 34.672 115.466 34.224 114.09 33.328C112.714 32.4 111.626 31.136 110.826 29.536C110.058 27.936 109.674 26.144 109.674 24.16C109.674 22.176 110.138 20.352 111.066 18.688C111.994 17.024 113.258 15.712 114.858 14.752C116.49 13.76 118.25 13.264 120.138 13.264C121.482 13.264 122.714 13.552 123.834 14.128C124.954 14.704 125.834 15.504 126.474 16.528C127.114 17.552 127.434 18.672 127.434 19.888C127.434 20.528 127.306 20.992 127.05 21.28C126.826 21.568 126.458 21.712 125.946 21.712H116.346C115.898 21.712 115.562 21.84 115.338 22.096C115.146 22.352 115.05 22.784 115.05 23.392C115.05 25.248 115.642 26.816 116.826 28.096C118.01 29.344 119.498 29.968 121.29 29.968C122.186 29.968 123.018 29.808 123.786 29.488C124.554 29.136 125.354 28.64 126.186 28C126.506 27.744 126.73 27.616 126.858 27.616C127.178 27.616 127.338 27.824 127.338 28.24C127.338 28.656 127.21 29.136 126.954 29.68C126.442 31.024 125.434 32.192 123.93 33.184C122.458 34.176 120.714 34.672 118.698 34.672ZM119.226 19.696C119.962 19.696 120.538 19.68 120.954 19.648C121.37 19.616 121.738 19.552 122.058 19.456C122.218 19.392 122.346 19.232 122.442 18.976C122.538 18.72 122.586 18.432 122.586 18.112C122.586 17.28 122.282 16.592 121.674 16.048C121.098 15.472 120.378 15.184 119.514 15.184C118.522 15.184 117.626 15.6 116.826 16.432C116.026 17.232 115.642 18.096 115.674 19.024C115.674 19.472 115.898 19.696 116.346 19.696H119.226ZM165.609 31.168C165.801 31.168 165.929 31.2 165.993 31.264C166.057 31.328 166.089 31.456 166.089 31.648C166.089 31.904 165.993 32.176 165.801 32.464C165.609 32.752 165.433 32.896 165.273 32.896C162.873 33.152 160.441 33.728 157.977 34.624C157.593 34.816 157.321 34.912 157.161 34.912C157.065 34.912 156.921 34.8 156.729 34.576C156.569 34.384 156.489 34.224 156.489 34.096C156.649 32.976 156.729 32.128 156.729 31.552V31.264C156.057 32.288 155.145 33.12 153.993 33.76C152.873 34.368 151.673 34.672 150.393 34.672C148.665 34.672 147.081 34.224 145.641 33.328C144.233 32.432 143.129 31.216 142.329 29.68C141.529 28.144 141.129 26.464 141.129 24.64C141.129 22.496 141.609 20.576 142.569 18.88C143.529 17.152 144.873 15.808 146.601 14.848C148.361 13.856 150.361 13.36 152.601 13.36C153.497 13.36 154.489 13.504 155.577 13.792L156.201 13.936C156.329 13.936 156.393 13.728 156.393 13.312V7.6C156.393 6.448 156.249 5.632 155.961 5.152C155.705 4.64 155.225 4.304 154.521 4.144C154.137 4.048 153.945 3.808 153.945 3.424C153.945 3.008 154.121 2.768 154.473 2.704C155.625 2.448 156.825 2.128 158.073 1.744C159.353 1.328 160.409 0.943997 161.241 0.591998C161.881 0.303998 162.265 0.159998 162.393 0.159998C162.745 0.159998 162.921 0.351998 162.921 0.735999C162.889 0.863999 162.841 1.248 162.777 1.888C162.745 2.496 162.713 3.216 162.681 4.048L162.441 28.24C162.441 29.36 162.521 30.16 162.681 30.64C162.841 31.088 163.129 31.312 163.545 31.312L165.417 31.168H165.609ZM152.841 31.408C153.385 31.408 154.009 31.28 154.713 31.024C155.417 30.736 155.977 30.368 156.393 29.92L156.345 19.312C156.345 18.768 156.121 18.208 155.673 17.632C155.257 17.056 154.713 16.576 154.041 16.192C153.401 15.808 152.761 15.616 152.121 15.616C151.353 15.616 150.633 15.936 149.961 16.576C149.321 17.184 148.793 18.08 148.377 19.264C147.993 20.448 147.801 21.808 147.801 23.344C147.801 25.008 148.025 26.448 148.473 27.664C148.953 28.88 149.577 29.808 150.345 30.448C151.113 31.088 151.945 31.408 152.841 31.408ZM175.886 34.672C174.19 34.672 172.654 34.224 171.278 33.328C169.902 32.4 168.814 31.136 168.014 29.536C167.246 27.936 166.862 26.144 166.862 24.16C166.862 22.176 167.326 20.352 168.254 18.688C169.182 17.024 170.446 15.712 172.046 14.752C173.678 13.76 175.438 13.264 177.326 13.264C178.67 13.264 179.902 13.552 181.022 14.128C182.142 14.704 183.022 15.504 183.662 16.528C184.302 17.552 184.622 18.672 184.622 19.888C184.622 20.528 184.494 20.992 184.238 21.28C184.014 21.568 183.646 21.712 183.134 21.712H173.534C173.086 21.712 172.75 21.84 172.526 22.096C172.334 22.352 172.238 22.784 172.238 23.392C172.238 25.248 172.83 26.816 174.014 28.096C175.198 29.344 176.686 29.968 178.478 29.968C179.374 29.968 180.206 29.808 180.974 29.488C181.742 29.136 182.542 28.64 183.374 28C183.694 27.744 183.918 27.616 184.046 27.616C184.366 27.616 184.526 27.824 184.526 28.24C184.526 28.656 184.398 29.136 184.142 29.68C183.63 31.024 182.622 32.192 181.118 33.184C179.646 34.176 177.902 34.672 175.886 34.672ZM176.414 19.696C177.15 19.696 177.726 19.68 178.142 19.648C178.558 19.616 178.926 19.552 179.246 19.456C179.406 19.392 179.534 19.232 179.63 18.976C179.726 18.72 179.774 18.432 179.774 18.112C179.774 17.28 179.47 16.592 178.862 16.048C178.286 15.472 177.566 15.184 176.702 15.184C175.71 15.184 174.814 15.6 174.014 16.432C173.214 17.232 172.83 18.096 172.862 19.024C172.862 19.472 173.086 19.696 173.534 19.696H176.414ZM215.5 34.336C213.964 34.336 211.852 34.272 209.164 34.144C207.724 34.048 206.588 34 205.756 34L202.588 34.048C200.924 34.112 199.724 34.144 198.988 34.144C198.732 34.144 198.508 34.08 198.316 33.952C198.124 33.824 198.028 33.664 198.028 33.472C198.028 32.928 198.364 32.592 199.036 32.464C200.284 32.208 201.116 31.872 201.532 31.456C201.98 31.04 202.204 30.336 202.204 29.344V7.552C202.204 6.496 201.996 5.76 201.58 5.344C201.164 4.928 200.316 4.576 199.036 4.288C198.364 4.128 198.028 3.792 198.028 3.28C198.028 3.056 198.124 2.88 198.316 2.752C198.508 2.624 198.732 2.56 198.988 2.56C200.172 2.56 201.356 2.608 202.54 2.704C204.076 2.768 205.164 2.8 205.804 2.8C206.348 2.8 207.836 2.736 210.268 2.608C212.444 2.448 214.22 2.368 215.596 2.368C218.796 2.368 221.692 3.024 224.284 4.336C226.908 5.648 228.956 7.488 230.428 9.856C231.932 12.224 232.684 14.896 232.684 17.872C232.684 20.784 231.996 23.504 230.62 26.032C229.244 28.528 227.244 30.544 224.62 32.08C222.028 33.584 218.988 34.336 215.5 34.336ZM214.78 31.888C217.98 31.888 220.412 30.752 222.076 28.48C223.772 26.208 224.62 23.104 224.62 19.168C224.62 16.32 224.204 13.824 223.372 11.68C222.572 9.536 221.388 7.872 219.82 6.688C218.252 5.504 216.396 4.912 214.252 4.912C212.492 4.912 211.276 5.024 210.604 5.248C209.932 5.44 209.596 5.936 209.596 6.736V27.664C209.596 29.2 210.028 30.288 210.892 30.928C211.756 31.568 213.052 31.888 214.78 31.888ZM244.042 34.672C242.346 34.672 240.81 34.224 239.434 33.328C238.058 32.4 236.97 31.136 236.17 29.536C235.402 27.936 235.018 26.144 235.018 24.16C235.018 22.176 235.482 20.352 236.41 18.688C237.338 17.024 238.602 15.712 240.202 14.752C241.834 13.76 243.594 13.264 245.482 13.264C246.826 13.264 248.058 13.552 249.178 14.128C250.298 14.704 251.178 15.504 251.818 16.528C252.458 17.552 252.778 18.672 252.778 19.888C252.778 20.528 252.65 20.992 252.394 21.28C252.17 21.568 251.802 21.712 251.29 21.712H241.69C241.242 21.712 240.906 21.84 240.682 22.096C240.49 22.352 240.394 22.784 240.394 23.392C240.394 25.248 240.986 26.816 242.17 28.096C243.354 29.344 244.842 29.968 246.634 29.968C247.53 29.968 248.362 29.808 249.13 29.488C249.898 29.136 250.698 28.64 251.53 28C251.85 27.744 252.074 27.616 252.202 27.616C252.522 27.616 252.682 27.824 252.682 28.24C252.682 28.656 252.554 29.136 252.298 29.68C251.786 31.024 250.778 32.192 249.274 33.184C247.802 34.176 246.058 34.672 244.042 34.672ZM244.57 19.696C245.306 19.696 245.882 19.68 246.298 19.648C246.714 19.616 247.082 19.552 247.402 19.456C247.562 19.392 247.69 19.232 247.786 18.976C247.882 18.72 247.93 18.432 247.93 18.112C247.93 17.28 247.626 16.592 247.018 16.048C246.442 15.472 245.722 15.184 244.858 15.184C243.866 15.184 242.97 15.6 242.17 16.432C241.37 17.232 240.986 18.096 241.018 19.024C241.018 19.472 241.242 19.696 241.69 19.696H244.57ZM255.898 34.144C255.674 34.144 255.45 34.08 255.226 33.952C255.034 33.824 254.938 33.664 254.938 33.472C254.938 33.088 255.306 32.768 256.042 32.512C256.682 32.32 257.146 32.112 257.434 31.888C257.722 31.664 257.866 31.264 257.866 30.688V19.696C257.866 18.096 257.37 17.2 256.378 17.008C256.026 16.944 255.85 16.656 255.85 16.144C255.85 15.696 256.01 15.424 256.33 15.328C257.45 15.072 258.666 14.72 259.978 14.272C261.29 13.824 262.378 13.376 263.242 12.928C263.658 12.672 263.946 12.544 264.106 12.544C264.394 12.544 264.538 12.736 264.538 13.12L264.442 14.08C264.346 15.232 264.298 15.824 264.298 15.856C264.298 16.272 264.33 16.512 264.394 16.576C265.578 15.456 266.714 14.624 267.802 14.08C268.922 13.536 270.186 13.264 271.594 13.264C273.322 13.264 274.73 13.888 275.818 15.136C276.938 16.384 277.498 18.048 277.498 20.128V30.688C277.498 31.264 277.642 31.664 277.93 31.888C278.218 32.112 278.682 32.32 279.322 32.512C279.962 32.736 280.282 33.056 280.282 33.472C280.282 33.664 280.202 33.824 280.042 33.952C279.882 34.08 279.69 34.144 279.466 34.144C278.506 34.144 277.594 34.096 276.73 34C275.706 33.936 274.922 33.904 274.378 33.904C273.834 33.904 273.05 33.936 272.026 34C271.226 34.096 270.33 34.144 269.338 34.144C269.114 34.144 268.922 34.08 268.762 33.952C268.602 33.824 268.522 33.664 268.522 33.472C268.522 33.056 268.842 32.736 269.482 32.512C270.09 32.32 270.522 32.112 270.778 31.888C271.034 31.664 271.162 31.264 271.162 30.688V21.136C271.162 19.92 270.89 18.976 270.346 18.304C269.802 17.6 269.05 17.232 268.09 17.2C267.418 17.2 266.81 17.312 266.266 17.536C265.722 17.728 265.146 18.032 264.538 18.448C264.282 18.672 264.154 18.976 264.154 19.36V30.688C264.154 31.264 264.282 31.664 264.538 31.888C264.794 32.08 265.242 32.288 265.882 32.512C266.522 32.736 266.842 33.056 266.842 33.472C266.842 33.664 266.762 33.824 266.602 33.952C266.442 34.08 266.25 34.144 266.026 34.144C265.066 34.144 264.202 34.096 263.434 34C262.41 33.936 261.642 33.904 261.13 33.904C260.586 33.904 259.77 33.936 258.682 34C257.818 34.096 256.89 34.144 255.898 34.144ZM306.749 31.168C306.941 31.168 307.069 31.2 307.133 31.264C307.197 31.328 307.229 31.456 307.229 31.648C307.229 31.904 307.133 32.176 306.941 32.464C306.749 32.752 306.573 32.896 306.413 32.896C304.013 33.152 301.581 33.728 299.117 34.624C298.733 34.816 298.461 34.912 298.301 34.912C298.205 34.912 298.061 34.8 297.869 34.576C297.709 34.384 297.629 34.224 297.629 34.096C297.789 32.976 297.869 32.128 297.869 31.552V31.264C297.197 32.288 296.285 33.12 295.133 33.76C294.013 34.368 292.813 34.672 291.533 34.672C289.805 34.672 288.221 34.224 286.781 33.328C285.373 32.432 284.269 31.216 283.469 29.68C282.669 28.144 282.269 26.464 282.269 24.64C282.269 22.496 282.749 20.576 283.709 18.88C284.669 17.152 286.013 15.808 287.741 14.848C289.501 13.856 291.501 13.36 293.741 13.36C294.637 13.36 295.629 13.504 296.717 13.792L297.341 13.936C297.469 13.936 297.533 13.728 297.533 13.312V7.6C297.533 6.448 297.389 5.632 297.101 5.152C296.845 4.64 296.365 4.304 295.661 4.144C295.277 4.048 295.085 3.808 295.085 3.424C295.085 3.008 295.261 2.768 295.613 2.704C296.765 2.448 297.965 2.128 299.213 1.744C300.493 1.328 301.549 0.943997 302.381 0.591998C303.021 0.303998 303.405 0.159998 303.533 0.159998C303.885 0.159998 304.061 0.351998 304.061 0.735999C304.029 0.863999 303.981 1.248 303.917 1.888C303.885 2.496 303.853 3.216 303.821 4.048L303.581 28.24C303.581 29.36 303.661 30.16 303.821 30.64C303.981 31.088 304.269 31.312 304.685 31.312L306.557 31.168H306.749ZM293.981 31.408C294.525 31.408 295.149 31.28 295.853 31.024C296.557 30.736 297.117 30.368 297.533 29.92L297.485 19.312C297.485 18.768 297.261 18.208 296.813 17.632C296.397 17.056 295.853 16.576 295.181 16.192C294.541 15.808 293.901 15.616 293.261 15.616C292.493 15.616 291.773 15.936 291.101 16.576C290.461 17.184 289.933 18.08 289.517 19.264C289.133 20.448 288.941 21.808 288.941 23.344C288.941 25.008 289.165 26.448 289.613 27.664C290.093 28.88 290.717 29.808 291.485 30.448C292.253 31.088 293.085 31.408 293.981 31.408ZM317.026 34.672C315.33 34.672 313.794 34.224 312.418 33.328C311.042 32.4 309.954 31.136 309.154 29.536C308.386 27.936 308.002 26.144 308.002 24.16C308.002 22.176 308.466 20.352 309.394 18.688C310.322 17.024 311.586 15.712 313.186 14.752C314.818 13.76 316.578 13.264 318.466 13.264C319.81 13.264 321.042 13.552 322.162 14.128C323.282 14.704 324.162 15.504 324.802 16.528C325.442 17.552 325.762 18.672 325.762 19.888C325.762 20.528 325.634 20.992 325.378 21.28C325.154 21.568 324.786 21.712 324.274 21.712H314.674C314.226 21.712 313.89 21.84 313.666 22.096C313.474 22.352 313.378 22.784 313.378 23.392C313.378 25.248 313.97 26.816 315.154 28.096C316.338 29.344 317.826 29.968 319.618 29.968C320.514 29.968 321.346 29.808 322.114 29.488C322.882 29.136 323.682 28.64 324.514 28C324.834 27.744 325.058 27.616 325.186 27.616C325.506 27.616 325.666 27.824 325.666 28.24C325.666 28.656 325.538 29.136 325.282 29.68C324.77 31.024 323.762 32.192 322.258 33.184C320.786 34.176 319.042 34.672 317.026 34.672ZM317.554 19.696C318.29 19.696 318.866 19.68 319.282 19.648C319.698 19.616 320.066 19.552 320.386 19.456C320.546 19.392 320.674 19.232 320.77 18.976C320.866 18.72 320.914 18.432 320.914 18.112C320.914 17.28 320.61 16.592 320.002 16.048C319.426 15.472 318.706 15.184 317.842 15.184C316.85 15.184 315.954 15.6 315.154 16.432C314.354 17.232 313.97 18.096 314.002 19.024C314.002 19.472 314.226 19.696 314.674 19.696H317.554Z" fill="#fff3d4"/>
</svg>
