<svg width="43" height="43" viewBox="0 0 43 43" fill="none" xmlns="http://www.w3.org/2000/svg">
<path fill-rule="evenodd" clip-rule="evenodd" d="M0 0V43H43V0H0ZM33.3369 15.4289C33.3485 15.6909 33.3545 15.9544 33.3545 16.2189C33.3545 24.29 27.2114 33.5962 15.9775 33.5962C12.5284 33.5962 9.31805 32.5853 6.61529 30.8521C7.09311 30.9089 7.57915 30.9378 8.07228 30.9378C10.9337 30.9378 13.5671 29.9615 15.6575 28.323C12.9849 28.274 10.7292 26.5081 9.9519 24.0816C10.325 24.1531 10.7077 24.1915 11.1012 24.1915C11.6582 24.1915 12.1978 24.1165 12.7103 23.9772C9.91646 23.4159 7.81107 20.9476 7.81107 17.9886C7.81107 17.9628 7.81107 17.9371 7.81164 17.9116C8.63497 18.369 9.57662 18.6439 10.5779 18.6756C8.93899 17.5804 7.86106 15.7109 7.86106 13.5922C7.86106 12.4727 8.16225 11.4237 8.68808 10.5215C11.7003 14.2167 16.2006 16.6481 21.2765 16.9031C21.1723 16.4559 21.118 15.9897 21.118 15.5111C21.118 12.1384 23.8528 9.40386 27.2255 9.40386C28.9823 9.40386 30.5696 10.1454 31.6836 11.3323C33.0747 11.0588 34.3819 10.5502 35.5619 9.8504C35.1061 11.2767 34.1377 12.4733 32.8766 13.2294C34.1121 13.0816 35.2891 12.7532 36.3844 12.2675C35.5658 13.4922 34.5304 14.5679 33.3369 15.4289Z" fill="#FDD204"/>
</svg>
