<svg width="43" height="43" viewBox="0 0 43 43" fill="none" xmlns="http://www.w3.org/2000/svg">
<path fill-rule="evenodd" clip-rule="evenodd" d="M28.8743 9.85693H14.1259C11.7721 9.85693 9.8567 11.7722 9.8567 14.1261V28.8744C9.8567 31.2287 11.7721 33.144 14.1259 33.144H28.8743C31.2284 33.144 33.1438 31.2287 33.1438 28.8744V14.1261C33.1438 11.7723 31.2284 9.85693 28.8743 9.85693ZM21.4998 29.1663C17.2731 29.1663 13.834 25.7271 13.834 21.5C13.834 17.2734 17.2731 13.8342 21.4998 13.8342C25.7269 13.8342 29.1661 17.2734 29.1661 21.5C29.1661 25.7271 25.7269 29.1663 21.4998 29.1663ZM29.4127 15.4194C28.412 15.4194 27.5983 14.6057 27.5983 13.6056C27.5983 12.6054 28.412 11.7917 29.4127 11.7917C30.4128 11.7917 31.2265 12.6054 31.2265 13.6056C31.2265 14.6058 30.4128 15.4194 29.4127 15.4194Z" fill="#FDD204"/>
<path fill-rule="evenodd" clip-rule="evenodd" d="M21.4997 17.0737C19.0597 17.0737 17.0728 19.0598 17.0728 21.4998C17.0728 23.9407 19.0597 25.9272 21.4997 25.9272C23.9407 25.9272 25.9263 23.9407 25.9263 21.4998C25.9263 19.0598 23.9407 17.0737 21.4997 17.0737Z" fill="#FDD204"/>
<path fill-rule="evenodd" clip-rule="evenodd" d="M0 0V43H43V0H0ZM36.3827 28.8741C36.3827 33.015 33.015 36.3827 28.8743 36.3827H14.1259C9.98545 36.3827 6.61727 33.015 6.61727 28.8741V14.1259C6.61727 9.98545 9.98545 6.61727 14.1259 6.61727H28.8743C33.015 6.61727 36.3827 9.98545 36.3827 14.1259V28.8741Z" fill="#FDD204"/>
</svg>
